<svg width="21" height="20" viewBox="0 0 21 20" fill="none" xmlns="http://www.w3.org/2000/svg">
<path id="Path" fill-rule="evenodd" clip-rule="evenodd" d="M6.24262 18.8345C5.73555 19.0992 5.12211 19.0526 4.66084 18.7143C4.19957 18.3761 3.97071 17.805 4.07072 17.2418L4.88005 12.6029L1.47264 9.33755C1.05614 8.94036 0.903497 8.33995 1.07973 7.79207C1.25597 7.24419 1.73002 6.84536 2.29998 6.76548L7.03095 6.0892L9.16684 1.82842C9.42008 1.31743 9.9411 0.994156 10.5114 0.994156C11.0817 0.994156 11.6027 1.31743 11.856 1.82842L13.9918 6.0892L18.7228 6.76548C19.2928 6.84536 19.7668 7.24419 19.9431 7.79207C20.1193 8.33995 19.9667 8.94036 19.5502 9.33755L16.1427 12.6029L16.9521 17.2428C17.0521 17.806 16.8232 18.3771 16.362 18.7153C15.9007 19.0536 15.2873 19.1002 14.7802 18.8355L10.5114 16.6296L6.24262 18.8345Z" fill="#FEC84B" stroke="#FEC84B" stroke-width="1.5" stroke-linecap="round" stroke-linejoin="round"/>
</svg>
